<svg width="183" height="24" viewBox="0 0 183 24" fill="none" xmlns="http://www.w3.org/2000/svg">
<path d="M0 3.4974H5.03065V4.1255H0V7.52297H5.03065V8.15465H0V11.6592H5.03065V12.2944H0V15.8632H5.03065V16.4949H0V19.903H5.03065V20.5347H0V24H74.0458V20.5204H69.0338V19.8888H74.0644V16.4806H69.0338V15.8632H74.0644V12.2944H69.0338V11.6592H74.0644V8.15465H69.0338V7.52297H74.0644V4.1255H69.0338V3.4974H74.0644V0H0.0186046L0 3.4974ZM62.2283 3.4974H67.1473L63.3706 20.5347H58.4478L62.2283 3.4974ZM43.1029 8.29026C44.1931 4.25041 48.1298 3.14409 51.847 3.14409C55.5641 3.14409 58.9985 4.39316 57.8004 8.49725H52.8777C52.9728 8.24229 52.9943 7.9674 52.94 7.70167C52.8856 7.43593 52.7574 7.18923 52.5688 6.98766C52.2265 6.63078 51.6274 6.44521 50.7902 6.44521C49.674 6.44521 48.5205 7.15896 48.3307 8.00119C48.0554 9.25383 49.54 9.65353 50.7716 9.98186C53.5884 10.717 57.8413 10.999 56.8367 15.6027C56.0441 19.1714 51.9735 20.8952 47.8619 20.8952C44.8182 20.8952 42.1801 20.2635 41.3801 18.0865C41.0732 17.1186 41.0436 16.0893 41.2945 15.1066H46.2135C45.8414 16.709 46.8721 17.5833 48.6433 17.5833C49.7782 17.5833 51.3521 17.0159 51.62 15.8846C52.1298 13.572 48.3791 14.0645 44.874 12.4372C43.248 11.6842 42.7085 10.1246 43.1177 8.28669M28.0928 3.49383H41.6443L41.395 4.61442L40.9001 6.79851H32.2825L31.5011 10.3138H39.4117L38.6676 13.6184H30.7718L29.9718 17.23H38.5857L37.8415 20.5347H24.3161L28.0928 3.49383ZM7.11063 15.1066H12.0334C11.6613 16.709 12.6883 17.5833 14.4594 17.5833C15.5943 17.5833 17.1719 17.0159 17.4361 15.8846C17.9496 13.572 14.1989 14.0645 10.6939 12.4372C9.04922 11.6842 8.52829 10.1246 8.91899 8.28669C10.0167 4.24684 13.9459 3.14052 17.6631 3.14052C21.3803 3.14052 24.8147 4.38959 23.6165 8.49368H18.6938C18.7889 8.23872 18.8105 7.96383 18.7561 7.6981C18.7017 7.43236 18.5735 7.18566 18.385 6.98409C18.0464 6.62721 17.4473 6.44164 16.6101 6.44164C15.4938 6.44164 14.3366 7.15539 14.1468 7.99762C13.8752 9.25026 15.3599 9.64996 16.5878 9.97829C19.4082 10.7135 23.6575 10.9954 22.6565 15.5991C21.8603 19.1679 17.7896 20.8916 13.6817 20.8916C9.57387 20.8916 6.15808 19.7317 7.11063 15.1066Z" fill="#006BB7"/>
<path d="M157.349 6.82031L155.741 9.67533L153.367 13.8972H155.741H158.115L157.423 6.82031H157.349Z" fill="#006BB7"/>
<path d="M84.625 0V3.4974H89.8677V4.1255H84.625V7.52297H89.8677V8.15465H84.625V11.6592H89.8677V12.2944H84.625V15.8632H89.8677V16.4949H84.625V19.903H89.8677V20.5347H84.625V23.9964H182.265V0H84.625ZM108.439 8.49368H103.509C103.605 8.23914 103.628 7.96426 103.574 7.69839C103.52 7.43251 103.392 7.18563 103.203 6.98409C102.861 6.62721 102.266 6.44163 101.429 6.44163C100.312 6.44163 99.1551 7.15539 98.9691 8.00119C98.6937 9.25026 100.178 9.64996 101.406 9.98186C104.223 10.6956 108.476 10.9954 107.471 15.5955C106.675 19.1643 102.608 20.8845 98.5039 20.8845C94.3998 20.8845 90.984 19.7246 91.9328 15.0995H96.8519C96.4798 16.7054 97.5105 17.5762 99.2816 17.5762C100.416 17.5762 101.99 17.0088 102.258 15.881C102.772 13.5685 99.0174 14.061 95.5198 12.4336C93.8938 11.6806 93.3542 10.121 93.7598 8.28312C94.85 4.25041 98.7867 3.14052 102.5 3.14052C106.214 3.14052 109.648 4.38959 108.454 8.49368M123.505 13.6149H115.583L114.783 17.2229H123.393L122.649 20.5276H109.131L112.908 3.49383H126.433L125.938 5.73502L125.7 6.80565H117.09L116.312 10.3209H124.249L123.505 13.6149ZM135.944 20.5276L132.807 7.48015H132.759L129.867 20.5276H125.44L125.938 18.2793L129.213 3.49383H136.1L139.24 16.1844L139.296 16.138L142.109 3.49383H146.537L145.551 7.90483L142.753 20.5276H135.944ZM159.039 20.5276L158.596 17.1979H151.385L149.491 20.5276H144.572L145.551 18.9823L155.356 3.49383H161.357L164.594 20.5276H159.039ZM171.385 20.5276H166.462L170.239 3.49383H175.158L171.385 20.5276ZM182.265 20.5276H177.019V19.8888H182.261L182.265 20.5276ZM182.265 16.4877H177.019V15.8632H182.261L182.265 16.4877ZM182.265 12.298H177.019V11.6592H182.261L182.265 12.298ZM182.265 8.16178H177.019V7.52297H182.261L182.265 8.16178ZM182.265 4.13264H177.019V3.4974H182.261L182.265 4.13264Z" fill="#006BB7"/>
</svg>
